<?xml version="1.0" encoding="UTF-8"?>
<svg id="Camada_4" data-name="Camada 4" xmlns="http://www.w3.org/2000/svg" viewBox="0 0 220.67 101.65">
  <defs>
    <style>
      .cls-1 {
        fill: #fff;
      }
    </style>
  </defs>
  <g>
    <path class="cls-1" d="M49.99,16.48c-1.2-1.34-2.67-2.42-4.39-3.06-2.91-1.07-6.07-.89-8.98.09-1.3.44-4.16,1.4-6.48,4.23-1.68,2.04-2.33,4.15-2.6,5.34.51-.42,1.05-.83,1.61-1.22,6.91-4.84,14.84-5.64,20.84-5.37Z"/>
    <path class="cls-1" d="M59.57,20.31c1.52,1.55,2.36,3.51,2.7,5.6.51-.57,1.01-1.15,1.49-1.74.26-.33.75-.96,1.37-1.83.25-.36,1.41-2.02,2.03-3.21.72-1.39,2.27-4.35,1.11-6.62-1.29-2.53-5.17-2.77-6.33-2.84-1.76-.11-3.2.25-4.09.54.3.84.59,1.76.83,2.74.69,2.76.9,5.27.89,7.36Z"/>
    <path class="cls-1" d="M21.57,28.41c.33-.45.71-.93,1.12-1.42.4-.47.79-.89,1.17-1.27.09-1.5.54-5.59,3.63-9.47.52-.65,3.31-3.94,8.33-5.63,3.55-1.2,7.56-1.31,11.07.1,3.15,1.27,5.65,3.65,7.36,6.54.7.21,1.39.47,2.05.78.02-1.27-.07-3.05-.61-5.09,0,0-.81-3.07-2.54-5.59C50.52,3.5,44.32-.79,36.93.13c-9.16,1.14-13.34,9.55-13.94,10.76-1.96,3.93-2.2,7.51-2.3,9.08-.21,3.46.32,6.38.88,8.45Z"/>
    <path class="cls-1" d="M21.43,33.16c2.19,1.67,4.74,3.9,7.3,6.78,2.47,2.78,4.32,5.47,5.71,7.78,3.02-2.28,5.49-4.07,7.1-5.21,6.08-4.33,8.99-6.03,13.4-9.74,1.52-1.27,3.04-2.59,4.51-3.98.08-3.16-.8-6-3.67-7.66-5.34-3.09-12.81-1.77-18.32.09-1.57.53-6.77,2.51-11.85,7.26-1.87,1.75-3.24,3.42-4.17,4.69Z"/>
    <path class="cls-1" d="M13.23,24.3c1.23,1.64,3.06,3.83,5.6,6.13-.7-2.38-1.47-6-1.27-10.43.18-4.12,1.13-7.44,1.96-9.68-1.78-.61-3.28-.67-4.24-.62-.23.01-5.7.34-6.6,3.18-.14.43-.14.85,0,1.71.85,5.1,4.34,9.44,4.55,9.72Z"/>
    <path class="cls-1" d="M66.86,32.55c.77-4.91,2.01-8.75,2.71-11.92-.56,1.17-1.21,2.3-1.96,3.38-3.08,4.42-7.2,8.15-11.35,11.55-4.21,3.45-8.79,6.36-13.2,9.54-6.22,4.49-12.4,9.35-17.45,15.16-8.93,10.27-10.03,24.4-8.42,37.41,15.54,7.08,37.7,4.77,49.18-7.16.87-.9,2.2-2.3,3.52-4.5,9.38-15.57-6.82-29.14-3.02-53.45Z"/>
    <path class="cls-1" d="M16.11,70.91c1.77-5.18,4.67-9.1,5.7-10.61,3.36-4.91,6.92-8.46,9.65-10.82-.81-1.38-2.14-3.49-4.04-5.87-4.8-5.99-8.52-7.75-12.51-11.94-2.36-2.48-5.45-6.48-7.84-12.76.3,3.89,1.77,8.96,1.91,16.03.44,22.16-13.62,31.36-7.39,47.15.59,1.49,1.86,4.3,4.3,7.24,2.22,2.66,4.98,4.88,8.09,6.69-.89-8.39-.62-17.08,2.13-25.1Z"/>
  </g>
  <g>
    <g>
      <g>
        <path class="cls-1" d="M101.84,92.1l-1.13.32c-.07-.19-.18-.37-.31-.55-.14-.18-.32-.33-.56-.45-.24-.12-.54-.18-.9-.18-.5,0-.92.12-1.25.35-.33.23-.5.52-.5.88,0,.31.11.56.34.74.23.18.58.33,1.07.46l1.22.3c.73.18,1.28.45,1.64.82.36.37.54.84.54,1.41,0,.47-.13.89-.4,1.26-.27.37-.64.66-1.13.88-.48.21-1.04.32-1.68.32-.84,0-1.53-.18-2.08-.55-.55-.36-.9-.89-1.04-1.59l1.2-.3c.11.44.33.77.65,1,.32.22.74.33,1.25.33.59,0,1.06-.13,1.4-.38.35-.25.52-.55.52-.91,0-.29-.1-.53-.3-.72-.2-.19-.51-.34-.92-.44l-1.37-.32c-.75-.18-1.3-.46-1.66-.83-.35-.38-.53-.85-.53-1.42,0-.46.13-.87.39-1.23.26-.36.62-.64,1.08-.84s.97-.3,1.55-.3c.81,0,1.45.18,1.92.54.47.36.8.83.99,1.41Z"/>
        <path class="cls-1" d="M106.31,98.67c-.52,0-.99-.1-1.42-.3s-.76-.49-1.01-.86c-.25-.38-.38-.83-.38-1.37,0-.47.09-.85.28-1.15s.43-.53.74-.69c.31-.17.65-.29,1.03-.38.38-.08.76-.15,1.14-.2.5-.06.91-.11,1.22-.15s.54-.09.68-.17.22-.22.22-.43v-.04c0-.53-.14-.94-.43-1.23-.29-.29-.72-.44-1.3-.44s-1.08.13-1.42.4c-.34.26-.58.55-.72.84l-1.2-.43c.21-.5.5-.89.86-1.17.36-.28.75-.48,1.18-.59.43-.11.85-.17,1.26-.17.26,0,.57.03.91.09.34.06.68.19,1,.38.32.19.59.48.8.87.21.39.32.91.32,1.56v5.42h-1.26v-1.11h-.06c-.08.18-.23.37-.43.57-.2.2-.47.38-.8.52-.33.14-.74.21-1.21.21ZM106.5,97.54c.5,0,.92-.1,1.27-.29.34-.2.6-.45.78-.76.18-.31.26-.64.26-.98v-1.16c-.05.06-.17.12-.35.17-.18.05-.39.1-.62.13-.23.04-.46.07-.68.1-.22.03-.4.05-.53.07-.33.04-.63.11-.92.21-.28.09-.51.24-.68.42s-.26.44-.26.76c0,.44.16.77.49.99.33.22.74.33,1.24.33Z"/>
        <path class="cls-1" d="M113.65,87.52v10.96h-1.26v-10.96h1.26Z"/>
        <path class="cls-1" d="M118.38,98.67c-.52,0-.99-.1-1.42-.3s-.76-.49-1.01-.86c-.25-.38-.38-.83-.38-1.37,0-.47.09-.85.28-1.15s.43-.53.74-.69c.31-.17.65-.29,1.03-.38.38-.08.76-.15,1.14-.2.5-.06.91-.11,1.22-.15s.54-.09.68-.17.22-.22.22-.43v-.04c0-.53-.14-.94-.43-1.23-.29-.29-.72-.44-1.3-.44s-1.08.13-1.42.4c-.34.26-.58.55-.72.84l-1.2-.43c.21-.5.5-.89.86-1.17.36-.28.75-.48,1.18-.59.43-.11.85-.17,1.26-.17.26,0,.57.03.91.09.34.06.68.19,1,.38.32.19.59.48.8.87.21.39.32.91.32,1.56v5.42h-1.26v-1.11h-.06c-.08.18-.23.37-.43.57-.2.2-.47.38-.8.52-.33.14-.74.21-1.21.21ZM117.54,89.28l-.98-.04c0-.55.16-.99.47-1.34.31-.35.7-.52,1.16-.52.2,0,.38.03.54.1.16.07.31.15.45.24.14.09.29.17.44.24.15.07.32.1.52.1.2,0,.38-.08.52-.24.14-.16.21-.35.21-.58l.96.09c0,.56-.16,1-.47,1.33s-.7.49-1.16.49c-.25,0-.45-.04-.61-.1-.16-.07-.3-.15-.43-.24s-.26-.17-.4-.24c-.14-.07-.31-.1-.51-.1s-.37.08-.5.24c-.13.16-.2.35-.2.58ZM118.57,97.54c.5,0,.92-.1,1.27-.29.34-.2.6-.45.78-.76.18-.31.26-.64.26-.98v-1.16c-.05.06-.17.12-.35.17-.18.05-.39.1-.62.13-.23.04-.46.07-.68.1-.22.03-.4.05-.53.07-.33.04-.63.11-.92.21-.28.09-.51.24-.68.42s-.26.44-.26.76c0,.44.16.77.49.99.33.22.74.33,1.24.33Z"/>
        <path class="cls-1" d="M127.8,98.65c-.74,0-1.39-.18-1.95-.53-.56-.35-.99-.85-1.31-1.48-.31-.63-.47-1.38-.47-2.23s.16-1.6.47-2.24c.31-.64.75-1.13,1.31-1.49.56-.35,1.21-.53,1.95-.53s1.39.18,1.95.53c.56.35.99.85,1.31,1.49.31.64.47,1.39.47,2.24s-.16,1.59-.47,2.23c-.31.63-.75,1.13-1.31,1.48-.56.35-1.21.53-1.95.53ZM127.8,97.52c.56,0,1.03-.14,1.39-.43.36-.29.63-.67.81-1.14s.26-.98.26-1.53-.09-1.06-.26-1.54c-.17-.47-.44-.86-.81-1.15-.36-.29-.83-.44-1.39-.44s-1.03.15-1.39.44c-.36.29-.63.68-.81,1.15-.17.47-.26.99-.26,1.54s.09,1.06.26,1.53.44.85.81,1.14c.36.29.83.43,1.39.43Z"/>
        <path class="cls-1" d="M140.79,98.65c-.68,0-1.29-.17-1.81-.52s-.93-.84-1.23-1.48-.44-1.39-.44-2.26.15-1.61.44-2.25.71-1.13,1.24-1.47c.53-.35,1.14-.52,1.83-.52.54,0,.96.09,1.27.26.31.18.55.38.72.6.17.22.29.41.39.55h.11v-4.04h1.26v10.96h-1.22v-1.26h-.15c-.09.15-.22.34-.4.56-.17.23-.42.43-.73.6s-.74.26-1.27.26ZM140.96,97.52c.51,0,.93-.13,1.28-.4s.62-.64.8-1.11.27-1.02.27-1.64-.09-1.15-.27-1.61c-.18-.46-.44-.82-.79-1.08-.35-.26-.78-.39-1.29-.39s-.98.14-1.33.41c-.36.27-.62.64-.8,1.11-.18.46-.26.99-.26,1.56s.09,1.12.27,1.59c.18.48.45.85.8,1.13.35.28.8.42,1.32.42Z"/>
        <path class="cls-1" d="M150.48,98.65c-.79,0-1.47-.18-2.05-.53-.57-.35-1.01-.84-1.32-1.48-.31-.63-.46-1.37-.46-2.21s.15-1.58.46-2.23.74-1.15,1.29-1.51,1.2-.54,1.94-.54c.43,0,.85.07,1.27.21s.8.37,1.14.69.62.74.82,1.27.31,1.17.31,1.94v.53h-6.34v-1.09h5.05c0-.46-.09-.88-.28-1.24-.18-.36-.44-.65-.78-.86-.34-.21-.73-.32-1.19-.32-.5,0-.94.12-1.3.37-.37.25-.65.57-.84.97s-.29.82-.29,1.27v.73c0,.62.11,1.15.32,1.58.21.43.52.76.9.98.38.22.83.33,1.34.33.33,0,.63-.05.9-.14.27-.09.5-.24.7-.43.2-.19.35-.43.46-.71l1.22.34c-.13.41-.34.78-.65,1.09-.3.31-.68.55-1.12.73-.45.17-.95.26-1.5.26Z"/>
        <path class="cls-1" d="M160.22,98.48v-10.96h1.26v4.04h.11c.09-.14.22-.33.39-.55.17-.22.4-.42.72-.6.31-.18.74-.26,1.27-.26.69,0,1.3.17,1.83.52.53.35.94.84,1.24,1.47.3.63.44,1.38.44,2.25s-.15,1.62-.44,2.26c-.3.64-.71,1.13-1.23,1.48s-1.13.52-1.81.52c-.53,0-.95-.09-1.27-.26-.32-.18-.56-.38-.73-.6s-.3-.42-.4-.56h-.15v1.26h-1.22ZM161.46,94.37c0,.62.09,1.17.27,1.64.18.47.45.84.8,1.11s.78.4,1.28.4.97-.14,1.32-.42c.35-.28.62-.66.8-1.13.18-.48.27-1.01.27-1.59s-.09-1.1-.26-1.56c-.18-.47-.44-.83-.8-1.11-.36-.27-.8-.41-1.33-.41s-.95.13-1.29.39c-.35.26-.61.62-.79,1.08-.18.46-.27,1-.27,1.61Z"/>
        <path class="cls-1" d="M172.85,98.65c-.79,0-1.47-.18-2.05-.53-.57-.35-1.01-.84-1.32-1.48-.31-.63-.46-1.37-.46-2.21s.15-1.58.46-2.23.74-1.15,1.29-1.51,1.2-.54,1.94-.54c.43,0,.85.07,1.27.21s.8.37,1.14.69.62.74.82,1.27.31,1.17.31,1.94v.53h-6.34v-1.09h5.05c0-.46-.09-.88-.28-1.24-.18-.36-.44-.65-.78-.86-.34-.21-.73-.32-1.19-.32-.5,0-.94.12-1.3.37-.37.25-.65.57-.84.97s-.29.82-.29,1.27v.73c0,.62.11,1.15.32,1.58.21.43.52.76.9.98.38.22.83.33,1.34.33.33,0,.63-.05.9-.14.27-.09.5-.24.7-.43.2-.19.35-.43.46-.71l1.22.34c-.13.41-.34.78-.65,1.09-.3.31-.68.55-1.12.73-.45.17-.95.26-1.5.26Z"/>
        <path class="cls-1" d="M179.44,87.52v10.96h-1.26v-10.96h1.26Z"/>
        <path class="cls-1" d="M185.2,98.65c-.79,0-1.47-.18-2.05-.53-.57-.35-1.01-.84-1.32-1.48-.31-.63-.46-1.37-.46-2.21s.15-1.58.46-2.23.74-1.15,1.29-1.51,1.2-.54,1.94-.54c.43,0,.85.07,1.27.21s.8.37,1.14.69.62.74.82,1.27.31,1.17.31,1.94v.53h-6.34v-1.09h5.05c0-.46-.09-.88-.28-1.24-.18-.36-.44-.65-.78-.86-.34-.21-.73-.32-1.19-.32-.5,0-.94.12-1.3.37-.37.25-.65.57-.84.97s-.29.82-.29,1.27v.73c0,.62.11,1.15.32,1.58.21.43.52.76.9.98.38.22.83.33,1.34.33.33,0,.63-.05.9-.14.27-.09.5-.24.7-.43.2-.19.35-.43.46-.71l1.22.34c-.13.41-.34.78-.65,1.09-.3.31-.68.55-1.12.73-.45.17-.95.26-1.5.26Z"/>
        <path class="cls-1" d="M190.29,98.48v-.96l4.67-5.99v-.08h-4.52v-1.18h6.14v1.01l-4.54,5.95v.09h4.69v1.18h-6.44Z"/>
        <path class="cls-1" d="M201.1,98.67c-.52,0-.99-.1-1.42-.3s-.76-.49-1.01-.86c-.25-.38-.38-.83-.38-1.37,0-.47.09-.85.28-1.15s.43-.53.74-.69c.31-.17.65-.29,1.03-.38.38-.08.76-.15,1.14-.2.5-.06.91-.11,1.22-.15s.54-.09.68-.17.22-.22.22-.43v-.04c0-.53-.14-.94-.43-1.23-.29-.29-.72-.44-1.3-.44s-1.08.13-1.42.4c-.34.26-.58.55-.72.84l-1.2-.43c.21-.5.5-.89.86-1.17.36-.28.75-.48,1.18-.59.43-.11.85-.17,1.26-.17.26,0,.57.03.91.09.34.06.68.19,1,.38.32.19.59.48.8.87.21.39.32.91.32,1.56v5.42h-1.26v-1.11h-.06c-.08.18-.23.37-.43.57-.2.2-.47.38-.8.52-.33.14-.74.21-1.21.21ZM201.29,97.54c.5,0,.92-.1,1.27-.29.34-.2.6-.45.78-.76.18-.31.26-.64.26-.98v-1.16c-.05.06-.17.12-.35.17-.18.05-.39.1-.62.13-.23.04-.46.07-.68.1-.22.03-.4.05-.53.07-.33.04-.63.11-.92.21-.28.09-.51.24-.68.42s-.26.44-.26.76c0,.44.16.77.49.99.33.22.74.33,1.24.33Z"/>
      </g>
      <g>
        <rect class="cls-1" x="80.21" y="92.52" width="8.68" height="1"/>
        <rect class="cls-1" x="211.99" y="92.52" width="8.68" height="1"/>
      </g>
    </g>
    <g>
      <path class="cls-1" d="M83.32,52.37V6.88h15.37c3.55,0,6.47.6,8.75,1.81s3.97,2.86,5.06,4.96c1.1,2.1,1.64,4.49,1.64,7.17s-.55,5.06-1.64,7.13c-1.1,2.07-2.78,3.7-5.04,4.88-2.27,1.18-5.16,1.77-8.68,1.77h-12.44v-4.98h12.26c2.43,0,4.39-.36,5.88-1.07,1.49-.71,2.57-1.72,3.24-3.03.67-1.31,1.01-2.88,1.01-4.7s-.34-3.41-1.02-4.78c-.68-1.36-1.77-2.42-3.26-3.17-1.5-.75-3.47-1.12-5.93-1.12h-9.68v40.6h-5.51ZM104.73,31.94l11.19,20.43h-6.4l-11.02-20.43h6.22Z"/>
      <path class="cls-1" d="M136.45,53.08c-3.08,0-5.78-.73-8.1-2.2s-4.12-3.52-5.42-6.15-1.94-5.72-1.94-9.24.65-6.66,1.94-9.31,3.1-4.71,5.42-6.17,5.02-2.2,8.1-2.2,5.78.73,8.1,2.2,4.12,3.52,5.42,6.17c1.29,2.65,1.94,5.75,1.94,9.31s-.65,6.6-1.94,9.24c-1.3,2.64-3.1,4.69-5.42,6.15s-5.02,2.2-8.1,2.2ZM136.45,48.37c2.34,0,4.26-.6,5.77-1.8,1.51-1.2,2.63-2.78,3.35-4.73.72-1.95,1.09-4.07,1.09-6.35s-.36-4.41-1.09-6.38c-.73-1.97-1.84-3.56-3.35-4.78-1.51-1.21-3.44-1.82-5.77-1.82s-4.26.61-5.78,1.82c-1.51,1.21-2.63,2.81-3.35,4.78-.73,1.97-1.09,4.09-1.09,6.38s.36,4.4,1.09,6.35c.73,1.96,1.84,3.53,3.35,4.73,1.51,1.2,3.44,1.8,5.78,1.8Z"/>
      <path class="cls-1" d="M184.07,25.9l-4.71,1.33c-.3-.79-.73-1.55-1.3-2.3-.57-.75-1.34-1.37-2.32-1.85-.98-.49-2.23-.73-3.75-.73-2.09,0-3.82.48-5.21,1.43s-2.08,2.17-2.08,3.63c0,1.3.47,2.33,1.42,3.09.95.76,2.43,1.38,4.44,1.89l5.06,1.24c3.05.74,5.32,1.87,6.82,3.39,1.5,1.52,2.24,3.47,2.24,5.85,0,1.95-.56,3.7-1.68,5.24-1.12,1.54-2.68,2.75-4.68,3.64s-4.32,1.33-6.97,1.33c-3.48,0-6.36-.75-8.64-2.27s-3.72-3.72-4.33-6.62l4.98-1.24c.47,1.84,1.37,3.21,2.7,4.13s3.06,1.38,5.21,1.38c2.44,0,4.39-.52,5.83-1.57,1.44-1.04,2.17-2.3,2.17-3.76,0-1.18-.41-2.18-1.24-2.99-.83-.81-2.1-1.41-3.82-1.81l-5.69-1.33c-3.12-.74-5.42-1.89-6.87-3.45-1.46-1.56-2.19-3.52-2.19-5.88,0-1.92.54-3.63,1.63-5.11,1.09-1.48,2.58-2.64,4.46-3.49s4.03-1.27,6.43-1.27c3.38,0,6.03.74,7.96,2.22s3.31,3.44,4.12,5.86Z"/>
      <path class="cls-1" d="M202.63,53.17c-2.16,0-4.12-.41-5.89-1.23-1.76-.82-3.16-2.01-4.2-3.58s-1.55-3.45-1.55-5.67c0-1.96.38-3.54,1.16-4.76.77-1.22,1.8-2.18,3.09-2.88s2.71-1.22,4.28-1.57c1.56-.35,3.14-.62,4.72-.83,2.07-.27,3.76-.47,5.05-.61,1.29-.14,2.24-.38,2.84-.72s.9-.93.9-1.78v-.18c0-2.19-.6-3.89-1.79-5.11-1.19-1.21-3-1.82-5.41-1.82s-4.46.55-5.89,1.64c-1.42,1.1-2.42,2.27-3,3.51l-4.97-1.78c.89-2.07,2.08-3.69,3.56-4.85s3.12-1.98,4.89-2.44,3.51-.7,5.23-.7c1.1,0,2.36.13,3.79.39,1.43.26,2.81.79,4.15,1.59,1.34.8,2.45,2.01,3.34,3.62s1.33,3.78,1.33,6.49v22.48h-5.24v-4.62h-.27c-.36.74-.95,1.53-1.78,2.38-.83.84-1.93,1.56-3.31,2.15s-3.06.89-5.04.89ZM203.43,48.46c2.07,0,3.82-.41,5.25-1.22,1.43-.81,2.51-1.87,3.24-3.15.73-1.29,1.1-2.64,1.1-4.07v-4.8c-.22.27-.71.51-1.46.72-.75.21-1.61.4-2.58.55-.97.16-1.91.29-2.82.4-.91.11-1.65.2-2.21.28-1.36.18-2.63.46-3.81.86s-2.12.98-2.84,1.75c-.72.78-1.08,1.83-1.08,3.17,0,1.82.68,3.19,2.03,4.12,1.35.92,3.08,1.39,5.16,1.39Z"/>
    </g>
    <g>
      <path class="cls-1" d="M89.43,81.14c-1.56,0-2.93-.4-4.13-1.19-1.19-.79-2.13-1.91-2.8-3.36-.67-1.45-1.01-3.16-1.01-5.14s.34-3.67,1.01-5.11c.67-1.45,1.61-2.56,2.81-3.35s2.59-1.18,4.16-1.18c1.22,0,2.18.2,2.89.6.71.4,1.25.86,1.63,1.36.38.51.67.92.88,1.25h.24v-9.2h2.87v24.93h-2.78v-2.87h-.34c-.21.34-.51.77-.9,1.28-.39.52-.95.97-1.67,1.38-.72.4-1.68.6-2.88.6ZM89.82,78.56c1.15,0,2.13-.3,2.92-.91.8-.6,1.4-1.44,1.81-2.52s.62-2.32.62-3.73-.2-2.62-.61-3.67c-.41-1.05-1.01-1.87-1.8-2.46-.79-.59-1.78-.88-2.95-.88s-2.23.31-3.04.93c-.81.62-1.41,1.46-1.81,2.52-.4,1.06-.6,2.25-.6,3.56s.21,2.54.61,3.62c.41,1.08,1.02,1.94,1.83,2.58.81.64,1.81.96,3.01.96Z"/>
      <path class="cls-1" d="M111.48,81.14c-1.8,0-3.35-.4-4.66-1.2-1.3-.8-2.3-1.92-3.01-3.36-.7-1.44-1.05-3.12-1.05-5.03s.35-3.61,1.05-5.07c.7-1.46,1.68-2.61,2.95-3.43,1.26-.82,2.74-1.24,4.42-1.24.97,0,1.94.16,2.89.49.95.32,1.81.85,2.59,1.58.78.73,1.4,1.69,1.86,2.88.46,1.19.69,2.66.69,4.41v1.22h-14.41v-2.48h11.49c0-1.06-.21-2-.63-2.82-.42-.83-1.01-1.48-1.78-1.96-.77-.48-1.67-.72-2.71-.72-1.14,0-2.13.28-2.96.85-.83.56-1.47,1.3-1.92,2.2-.45.9-.67,1.87-.67,2.9v1.66c0,1.41.25,2.61.74,3.58.49.98,1.17,1.72,2.05,2.23.88.51,1.89.76,3.06.76.75,0,1.44-.11,2.05-.32.61-.21,1.14-.54,1.59-.97.45-.43.79-.98,1.03-1.63l2.78.78c-.29.94-.78,1.77-1.47,2.48s-1.54,1.26-2.56,1.66-2.15.59-3.42.59Z"/>
      <path class="cls-1" d="M146.49,66.24l-2.58.73c-.16-.43-.4-.85-.71-1.26-.31-.41-.74-.75-1.27-1.02-.54-.27-1.22-.4-2.06-.4-1.14,0-2.1.26-2.85.79s-1.14,1.19-1.14,1.99c0,.71.26,1.28.78,1.69s1.33.76,2.43,1.04l2.78.68c1.67.41,2.92,1.02,3.74,1.86.82.83,1.23,1.9,1.23,3.21,0,1.07-.31,2.03-.92,2.87-.61.84-1.47,1.51-2.56,2s-2.37.73-3.82.73c-1.91,0-3.49-.41-4.74-1.24-1.25-.83-2.04-2.04-2.37-3.63l2.73-.68c.26,1.01.75,1.76,1.48,2.26.73.5,1.68.75,2.85.75,1.34,0,2.4-.29,3.2-.86.79-.57,1.19-1.26,1.19-2.06,0-.65-.23-1.19-.68-1.64-.46-.44-1.15-.77-2.09-.99l-3.12-.73c-1.71-.41-2.97-1.04-3.77-1.89-.8-.86-1.2-1.93-1.2-3.22,0-1.05.3-1.99.9-2.8.6-.81,1.41-1.45,2.45-1.91,1.04-.46,2.21-.69,3.52-.69,1.85,0,3.3.41,4.36,1.22,1.06.81,1.81,1.88,2.26,3.21Z"/>
      <path class="cls-1" d="M156.67,81.19c-1.18,0-2.26-.23-3.23-.68s-1.73-1.1-2.3-1.96c-.57-.86-.85-1.89-.85-3.11,0-1.07.21-1.94.63-2.61s.99-1.2,1.69-1.58c.71-.38,1.49-.67,2.34-.86.86-.19,1.72-.34,2.59-.46,1.14-.15,2.06-.26,2.77-.33.71-.08,1.23-.21,1.56-.4.33-.19.49-.51.49-.97v-.1c0-1.2-.33-2.13-.98-2.8-.65-.67-1.64-1-2.96-1s-2.45.3-3.23.9-1.33,1.24-1.64,1.92l-2.73-.97c.49-1.14,1.14-2.02,1.95-2.66.82-.64,1.71-1.08,2.68-1.34s1.92-.38,2.87-.38c.6,0,1.29.07,2.08.21.78.14,1.54.43,2.28.87s1.34,1.1,1.83,1.98.73,2.07.73,3.55v12.32h-2.87v-2.53h-.15c-.19.41-.52.84-.97,1.3-.45.46-1.06.86-1.81,1.18s-1.68.49-2.76.49ZM157.11,78.61c1.14,0,2.1-.22,2.88-.67.78-.45,1.38-1.02,1.78-1.73s.6-1.45.6-2.23v-2.63c-.12.15-.39.28-.8.4-.41.12-.88.22-1.41.3-.53.09-1.05.16-1.55.22-.5.06-.9.11-1.21.15-.75.1-1.44.25-2.09.47-.65.22-1.16.54-1.56.96-.39.43-.59,1-.59,1.74,0,1,.37,1.75,1.11,2.26.74.51,1.69.76,2.83.76Z"/>
      <path class="cls-1" d="M170.5,80.75v-18.7h2.78v2.82h.19c.34-.93.96-1.68,1.85-2.25s1.9-.87,3.02-.87c.21,0,.47,0,.79.01s.56.02.72.04v2.92c-.1-.02-.32-.06-.66-.12s-.71-.08-1.09-.08c-.91,0-1.72.19-2.43.57-.71.38-1.27.9-1.68,1.56s-.61,1.41-.61,2.26v11.83h-2.87Z"/>
      <path class="cls-1" d="M190.85,81.14c-1.69,0-3.17-.4-4.44-1.21-1.27-.8-2.26-1.93-2.97-3.37s-1.07-3.13-1.07-5.06.36-3.65,1.07-5.1,1.7-2.58,2.97-3.38c1.27-.8,2.75-1.21,4.44-1.21s3.17.4,4.44,1.21c1.27.8,2.26,1.93,2.97,3.38.71,1.45,1.06,3.15,1.06,5.1s-.35,3.62-1.06,5.06c-.71,1.44-1.7,2.57-2.97,3.37-1.27.8-2.75,1.21-4.44,1.21ZM190.85,78.56c1.28,0,2.34-.33,3.17-.99.83-.66,1.44-1.52,1.84-2.59.4-1.07.6-2.23.6-3.48s-.2-2.41-.6-3.49c-.4-1.08-1.01-1.95-1.84-2.62-.83-.67-1.88-1-3.17-1s-2.34.33-3.17,1c-.83.67-1.44,1.54-1.84,2.62-.4,1.08-.6,2.24-.6,3.49s.2,2.41.6,3.48,1.01,1.94,1.84,2.59c.83.66,1.88.99,3.17.99Z"/>
      <path class="cls-1" d="M206.58,69.5v11.25h-2.87v-18.7h2.78v2.92h.24c.44-.95,1.1-1.71,2-2.29.89-.58,2.05-.87,3.46-.87,1.27,0,2.37.26,3.32.77s1.69,1.29,2.22,2.34c.53,1.04.79,2.36.79,3.95v11.88h-2.87v-11.69c0-1.47-.38-2.62-1.14-3.44-.76-.82-1.81-1.24-3.14-1.24-.92,0-1.73.2-2.45.6-.72.4-1.28.98-1.7,1.74-.41.76-.62,1.69-.62,2.78Z"/>
    </g>
  </g>
</svg>