<svg width="112" height="91" viewBox="0 0 112 91" fill="none" xmlns="http://www.w3.org/2000/svg">
<g clip-path="url(#clip0_38_288)">
<path d="M56.7607 60.5391C56.5764 60.4404 56.6223 60.1933 56.9912 60.2427C57.36 60.2427 56.899 60.5885 56.7607 60.5391ZM55.3777 60.2427C55.3777 60.2427 55.5159 59.7982 55.6542 59.8475C55.8387 59.8971 56.0692 60.2921 55.7464 60.2921C55.4698 60.2921 55.3777 60.2427 55.3777 60.2427ZM27.9927 52.9331C28.4998 52.8344 29.422 53.1306 29.5603 53.0318C29.6985 52.9331 29.5141 53.9703 29.1454 54.069C28.7765 54.1678 28.4539 53.8222 28.2232 53.8222C27.6701 53.8222 27.4857 53.0319 27.9927 52.9331ZM28.2693 56.7854C28.085 56.3411 27.9927 54.7606 27.9467 54.5629C27.9006 54.3655 29.0531 54.3655 29.007 55.1556C28.9608 55.9953 28.4077 57.2299 28.2693 56.7854ZM29.5603 52.1428C29.5603 51.9453 29.5141 51.8466 29.8369 51.8959C30.1135 51.8959 30.2518 52.2911 30.0674 52.4392C29.8369 52.5379 29.5603 52.3405 29.5603 52.1428ZM27.8545 51.9453C27.5317 51.4514 27.6701 51.402 28.2693 51.402C28.8687 51.402 29.0531 51.5995 29.0531 51.5995C29.0531 51.5995 28.2232 52.4392 27.8545 51.9453ZM52.6115 21.4721C54.3634 20.9288 54.4555 21.0275 55.7003 20.0398C56.899 19.052 58.0517 19.2495 58.0976 19.694C58.1437 20.1385 56.9451 20.0891 56.2536 20.4349C55.5621 20.7806 55.2393 20.3855 54.1329 21.4227C52.7497 22.7068 50.8595 22.0647 52.6115 21.4721ZM49.9837 14.0637L50.2603 13.471C50.2603 13.471 50.3985 13.6191 50.3524 13.9649C50.3063 14.36 50.0298 14.2612 49.9837 14.0637ZM49.4765 14.8539C49.4304 14.2612 50.3524 14.9033 50.3524 15.4959C50.3524 16.138 49.5227 15.4465 49.4765 14.8539ZM51.6895 17.027C51.6895 17.027 51.5972 16.5825 51.8277 16.6319C52.1043 16.6813 52.4271 17.1258 52.1043 17.2739C51.7816 17.3233 51.6895 17.027 51.6895 17.027ZM54.9165 22.3611C54.7783 22.2129 54.7321 21.719 55.1011 21.719C55.4698 21.719 55.7926 21.5708 55.7464 21.9166C55.7926 22.3117 55.0549 22.5092 54.9165 22.3611ZM56.4841 21.7684C56.438 21.5214 56.2997 20.583 57.775 20.4843C59.2503 20.4349 57.9132 21.7684 57.9132 21.7684C57.9132 21.7684 56.5302 22.0153 56.4841 21.7684ZM53.0264 23.2007C53.0264 23.2007 53.1648 22.8055 53.303 22.5586C53.4414 22.3117 53.5335 22.0647 53.9945 22.3611C54.4096 22.6574 54.0868 23.2994 53.8101 23.2994C53.5796 23.3488 53.0264 23.2007 53.0264 23.2007ZM51.09 24.1885C51.0439 24.0898 51.6895 23.6452 51.92 23.5465C52.1505 23.4971 52.1043 23.9414 51.8738 24.1391C51.6433 24.3366 51.1362 24.2872 51.09 24.1885ZM47.1713 25.275C47.0331 25.0282 46.9869 24.5343 47.5864 24.0898C48.2317 23.6452 47.909 23.3488 48.0935 24.0898C48.2779 24.7811 48.324 25.2257 48.0012 25.3738C47.6785 25.5221 47.3097 25.5221 47.1713 25.275ZM26.5635 22.7068L26.3792 29.0779C26.6558 30.708 30.6207 29.8683 30.5745 28.0407L26.5635 22.7068ZM25.872 9.96433C25.872 9.76677 25.7799 9.51982 26.0564 9.6186C26.333 9.71738 26.6097 10.1125 26.2869 10.2113C26.0104 10.2606 25.872 10.1619 25.872 9.96433ZM36.1068 57.477C36.1068 57.1805 36.4296 56.9337 36.8906 56.9337C37.3055 56.9337 37.0288 57.5757 37.0288 57.5757C37.0288 57.5757 36.1068 57.7732 36.1068 57.477ZM36.8444 58.761C36.2912 58.8104 36.1991 58.7116 36.5678 58.366C36.9367 58.0202 37.1211 57.7732 37.3055 58.0696C37.4437 58.366 37.3977 58.7116 36.8444 58.761ZM24.5811 79.6528C25.0423 80.2948 25.0423 81.2332 24.5351 81.7271C24.3046 81.6284 23.2903 82.7149 23.3365 80.7887C23.7514 80.3937 24.1201 80.2454 24.5811 79.6528ZM35.5535 36.3877C35.5535 36.3877 35.0925 34.906 34.8159 34.659C34.5392 34.3627 33.479 33.9676 32.5108 34.906C31.4966 35.8445 29.2836 36.9804 29.007 37.2766C28.6382 37.6717 27.0245 37.3755 27.3935 39.7954C27.7622 40.882 27.0707 42.3637 28.4998 43.0059C30.0674 43.4502 32.3265 43.6973 33.3406 43.4009C34.6315 42.4131 34.9081 40.7339 36.0607 38.8572C36.4755 36.8323 35.7381 37.1778 35.5535 36.3877ZM18.4495 37.4743C18.0807 37.2766 17.8502 37.1285 18.2651 36.7827C18.6801 36.4371 19.0028 36.4865 19.1872 36.8323C19.3716 37.2272 18.8184 37.6717 18.4495 37.4743ZM4.80322 43.6973C4.57269 43.3515 4.52659 43.3021 4.5727 42.9566C4.6649 42.6601 4.43439 42.3637 4.94152 42.6108C5.40254 42.907 5.81747 42.9563 5.72527 43.2528C5.67917 43.6479 5.07982 44.0431 4.80322 43.6973ZM24.2585 8.1863C22.9676 8.13691 23.7975 7.74179 23.8436 7.49486C23.9819 7.2973 24.1662 7.34669 24.3967 7.39608C24.6272 7.6924 24.6272 8.28508 24.9039 8.43325C25.0423 8.38386 25.0423 8.1863 24.95 7.88996C24.8577 7.49484 25.4572 7.44547 25.6415 7.79118C26.7481 8.77898 26.9786 9.81616 27.8083 11.2485C29.1913 13.0758 30.5745 15.002 31.9114 17.027C33.6634 19.2989 33.7095 20.7312 34.7238 21.6202C35.323 22.2129 35.9224 22.608 36.1991 23.4971C36.7062 23.8921 37.1672 23.744 37.8126 23.4475C38.873 22.5092 40.9014 21.6696 42.469 20.9782C45.4655 19.5953 44.0825 18.7556 44.8663 17.7185C46.3877 14.9527 47.2174 15.1008 48.0474 12.1375C48.6007 10.6064 49.707 10.0631 50.3985 10.9521C50.629 11.0015 50.8134 11.0015 50.998 10.7052C51.3667 10.6064 51.4128 11.4954 51.7356 10.7052C51.7816 10.31 51.9661 10.0137 52.6115 10.1619C52.7958 10.557 52.0582 11.0509 51.7816 11.4954C51.5051 12.335 51.5051 12.7795 51.92 12.6807C51.9661 12.3844 52.1505 12.3844 52.2887 12.2856C52.6115 12.1868 52.4733 12.9277 52.9802 12.2856C53.3491 11.6436 53.1648 11.2485 53.5335 10.9027C54.4555 11.2485 55.9308 10.8533 56.0692 12.4338C56.2536 14.3106 55.9308 14.9033 55.2393 14.8045C54.686 14.6069 54.6401 14.3106 55.0088 13.7673C55.0549 13.5204 55.0088 13.1746 54.5016 13.2734C54.0868 13.3228 54.0868 13.7673 54.4555 14.1624V15.5947C55.9308 15.891 56.8069 14.5575 57.6827 14.4094C59.5268 14.113 61.4633 15.249 60.3567 16.6813C59.988 17.1258 59.4347 17.0764 59.2963 17.6691C59.158 18.2617 59.3885 18.2618 59.9418 18.1136C60.3105 17.8172 60.2185 17.1752 60.8177 16.9282L61.371 16.7801C61.4633 16.3356 61.5092 16.0392 61.9243 16.0392C62.1548 16.0392 62.0625 16.8295 62.4314 16.9776C62.6619 17.027 62.7079 16.8788 62.6619 16.3849C62.6619 15.5453 63.5378 15.5947 64.0449 16.0392C64.6441 16.9282 63.6301 18.163 62.9384 18.0148C62.3391 17.9654 62.0625 17.2739 61.5553 17.6197C61.2326 17.916 61.1866 18.2618 61.5092 18.5087C61.7397 19.1014 61.6015 19.3483 60.8638 19.1508C60.2644 18.9532 60.3567 19.5459 60.6795 19.5953C62.0163 19.6446 61.7397 21.472 60.7715 21.2251C59.7575 20.83 59.8495 21.2745 59.8495 21.4227C59.7575 21.8178 59.8495 22.2129 58.9275 21.8672C58.3742 21.8178 58.1437 22.1635 57.8671 22.4599C57.6366 22.9538 57.2679 23.102 56.853 23.0032C55.8849 23.4971 55.2854 24.6824 53.3953 24.9786L49.1076 26.2135C47.3559 26.7567 47.4018 28.4853 47.0331 29.7202C46.5259 31.5474 46.3416 31.4981 45.4655 33.4737C45.3734 34.6096 45.235 35.4493 44.8201 36.3877C44.2669 39.598 45.7422 40.2893 46.2493 41.2772C48.785 44.0925 47.4941 44.9319 49.1076 46.2655C50.6752 47.7473 50.1219 50.2661 53.2569 50.8094C55.2854 51.3527 55.4698 51.5501 56.7146 52.7356C57.36 53.0812 58.0055 53.0812 58.697 52.785C59.0198 52.7356 59.4808 54.0197 59.6652 52.4886C60.0339 52.8344 61.0482 52.5379 60.7715 53.6245C60.7715 55.2049 61.4633 54.2171 61.7858 55.0075L61.9243 55.8472H61.1405L61.371 56.6866C60.3567 56.5879 59.8495 57.2299 59.8957 57.8721L59.8495 59.3536C58.6509 58.8599 59.4808 57.8225 59.2503 57.0324L58.6048 57.1312C58.4665 57.4276 58.5127 57.8225 58.697 58.366C58.0055 58.761 58.236 59.3536 57.775 59.7982C57.4061 59.7982 57.0835 59.3042 56.5764 59.7488C55.7003 59.7982 55.7003 59.4526 55.0088 59.2055C54.4555 59.3042 54.8244 60.3414 53.3953 59.5019C52.9802 59.6501 53.1186 60.2921 52.1505 59.9465C50.168 59.0574 50.4908 59.9465 50.3985 60.5885C51.2285 60.5391 51.6433 60.8353 51.5051 61.7738C51.459 62.8603 50.629 62.8109 50.4908 62.1196L49.9837 61.5763C50.1219 61.2305 50.168 60.9837 50.168 60.7366C48.8312 61.1811 48.9233 59.8475 48.5084 59.3043C47.4941 57.5757 45.9267 57.4276 44.8201 56.835C43.5292 56.6373 41.547 56.1434 39.5645 55.5507C38.6885 55.0568 37.8126 54.7606 36.9367 54.6617C35.9224 55.1062 35.7381 56.6373 35.5997 57.5757C35.5997 58.366 35.3692 59.008 34.9543 59.3536C34.862 59.6994 34.9081 60.0946 35.0004 60.4404C35.1386 59.9959 35.3692 59.7488 35.6919 59.6501C36.245 59.8475 36.2912 60.5391 35.4153 61.3786C35.0925 61.4776 35.1386 61.1318 34.9081 61.033C34.4471 62.9593 33.6172 62.2677 33.5251 64.984C33.3406 66.0708 33.1562 66.5151 32.2803 68.1451C31.6809 69.6762 31.5427 70.3182 31.2199 72.0961C30.9894 72.7384 31.2661 73.7262 29.5603 74.4669C28.9149 74.3188 28.4077 74.5656 28.3155 77.1339C28.4539 79.3566 26.794 78.912 26.0564 79.9492C25.0423 79.0108 22.2299 78.2698 22.8755 75.0595C23.106 74.7137 23.8896 74.8621 24.3046 75.5041C24.8118 75.356 25.5033 75.1089 25.4572 74.0224C24.4429 73.4791 24.5351 72.59 25.2728 72.1455C26.794 71.4047 26.4253 72.8865 27.0245 73.2816C27.3012 71.9974 27.5317 71.8493 27.4396 71.2073C26.7481 70.565 26.8863 69.9724 27.6701 69.8737C27.7162 69.6268 27.9006 68.7871 26.794 69.5279C25.6415 70.2688 25.0882 70.2195 24.6272 71.8493C24.3506 71.9974 22.7832 72.4913 22.8755 69.7749L22.9676 66.7128C22.7832 64.984 22.4604 65.5275 22.1838 64.9347L22.2761 61.4776C22.5066 60.7366 23.9357 60.1933 21.7689 58.9093C21.8612 57.0324 21.2618 55.452 21.8151 53.7232C21.7228 52.2417 20.893 52.7356 20.7547 50.5623C20.8008 50.0191 20.2937 49.6241 18.6801 49.7229C16.4671 49.8216 14.5308 49.4758 12.7789 48.9325C10.105 49.1302 10.566 50.0191 8.86024 50.6613C7.06224 51.2046 7.52327 51.6985 6.37069 52.7356C4.48049 52.2911 6.18629 52.0934 6.09409 51.7972C6.23239 51.1056 5.54084 50.5623 4.6649 51.402C3.92727 51.8466 3.78897 52.6367 3.09742 52.785C2.6825 52.9825 2.6364 54.069 1.76045 53.3283C1.06891 51.8466 0.884501 53.4764 0.469577 53.5258C0.192963 53.0812 0.0546564 52.5379 0.192964 51.7972C0.792296 51.0069 0.192965 50.76 0.700091 49.9203C1.48383 48.7351 2.08317 48.6363 2.54419 47.3521L2.49809 46.562C2.08316 46.5124 1.76045 46.0681 1.29942 46.3643C0.884499 46.5124 0.792296 48.1424 0.100758 46.7594C-0.129754 46.1174 0.14686 45.6729 0.838397 45.4258L2.17537 45.9197L2.54419 46.3643C2.7286 46.2655 3.14352 46.463 3.09742 46.0185C2.7286 45.4752 1.11501 44.6357 2.03706 44.0925C2.35977 44.3887 2.17537 45.0309 2.91302 44.9319C3.23572 44.6357 3.74285 44.8826 4.15777 44.8826C3.97337 43.8948 3.09742 44.1912 2.7747 43.7467C1.25332 43.0553 1.99096 41.9192 3.37404 41.7711C4.06557 41.7711 4.29609 41.2772 4.6649 40.3881C5.49474 40.1906 5.40254 41.6723 6.69342 39.598C7.47717 39.9438 6.83172 41.1291 9.92059 41.4255L11.3037 41.4749C11.4881 40.2893 9.92059 40.9316 9.41347 40.6351C9.59787 39.0547 12.4562 37.2272 13.8854 38.9066C14.2542 38.0669 14.8074 37.5236 15.0841 36.931C17.0204 35.9432 16.9282 36.4865 17.1587 35.0541C17.8041 33.6711 18.0346 35.1529 19.0028 31.6958C19.2333 30.1647 18.8184 30.609 18.8645 29.8189L19.0489 28.4853C20.5242 28.4359 20.1553 26.6086 19.9248 26.2628C19.8787 25.4725 19.8326 24.7318 20.1092 23.9414C20.2475 23.5465 19.5099 23.6946 19.0028 23.2994C18.3112 22.8549 18.1268 21.5214 19.4177 21.5708C19.4638 20.83 20.1092 20.9288 19.9709 18.6569C19.9709 18.4099 19.1872 19.2989 18.8184 19.2495C18.5418 19.2001 18.634 18.1136 18.6801 18.0148C18.8645 17.7185 18.5418 17.3233 19.3716 16.8788C19.6943 16.6813 20.2014 17.3727 20.432 17.027C20.7086 16.5331 20.2475 14.8045 19.9248 14.4587C19.4638 13.7179 19.6482 13.1252 19.5099 12.4832L20.017 11.4954C20.1553 10.6558 20.3397 9.91494 20.9391 9.81616C21.5384 9.76677 21.7689 10.6558 22.3222 10.4088L22.5066 9.66799C23.1519 9.02591 24.4429 9.6186 24.2585 8.1863ZM24.0741 3.54369C24.1201 3.49432 24.2124 3.44493 24.2585 3.54369C24.3046 3.64247 24.2585 3.79064 24.2585 3.79064C24.2585 3.79064 24.028 3.59308 24.0741 3.54369ZM24.1201 2.70408C24.1201 2.70408 24.1201 2.30895 24.2585 2.40773C24.3967 2.50651 24.5811 2.75347 24.4429 2.75347C24.2585 2.80286 24.1201 2.70408 24.1201 2.70408ZM23.3824 5.22293C22.9676 5.12415 22.8293 4.8772 22.9676 4.43271C23.0137 3.74125 23.6129 4.13637 23.9357 4.23515C24.6734 4.4821 24.8577 5.07476 24.5811 5.71684C23.6129 6.11193 23.9819 6.85279 23.0598 7.34669C22.7832 7.6924 22.4143 7.74179 21.9533 7.49486C21.7689 7.39608 21.7689 7.44547 21.6307 7.34669C21.4923 7.84057 22.1838 7.93935 21.9073 8.77899C22.0917 9.47043 21.2156 9.51982 20.9391 9.17408C20.4781 8.97652 20.2937 9.56921 19.8326 9.17408C19.4638 8.92713 19.6482 8.38386 20.1553 8.23569C20.2936 7.88996 20.9391 8.03813 20.6164 7.24791C20.5703 6.70462 20.7086 6.21071 21.0313 5.96379C21.3079 5.66744 21.5846 5.9144 21.6766 6.21071C21.7689 6.50706 21.9994 6.16135 21.9994 6.06257L22.0917 5.17354C22.4143 4.92659 22.6909 5.27232 22.6909 6.11196C22.8293 6.16132 22.9214 6.11193 23.0598 5.9144C23.106 5.61805 23.3824 5.42049 23.3824 5.22293ZM18.3573 5.66744C18.634 6.06257 20.1553 5.76623 20.2475 4.72903C20.3397 3.69186 19.6021 3.88942 19.3716 3.64247C19.1411 3.44493 18.3573 3.54369 18.634 4.38332C18.9106 5.22293 19.1411 4.92659 18.634 4.92659C18.0807 4.92659 18.0346 5.27232 18.3573 5.66744ZM20.6164 5.02537C20.6164 4.8772 20.5242 4.23515 20.5703 3.9882C20.6625 3.74125 20.8469 3.9882 20.893 4.33393C20.9391 4.67966 20.9391 4.92659 20.893 5.07476C20.8469 5.22293 20.6625 5.12415 20.6164 5.02537ZM21.0313 2.95103C21.1697 2.5559 21.354 2.95103 21.5384 2.85225C21.7228 2.70408 22.0917 2.5559 22.3222 2.90164C22.5988 3.24737 22.4143 3.54369 22.2761 3.54369C22.1378 3.54369 22.3683 3.9882 22.3683 3.9882C22.3683 3.9882 22.0456 4.28454 21.6766 3.74125C21.354 3.19798 20.893 3.39554 21.0313 2.95103ZM22.7832 0.530941C22.7832 0.530941 22.4604 0.333384 22.5527 0.234606C22.6448 0.086437 22.7371 0.135825 22.9676 0.283994C23.1519 0.432162 23.2903 0.629723 23.106 0.580333C22.8755 0.530943 22.7832 0.530941 22.7832 0.530941ZM22.1378 0.728499C22.3683 0.728499 22.2761 1.02484 22.5066 1.173C22.7371 1.32117 22.9676 1.41995 22.6909 1.6669C22.4143 1.96324 21.9994 1.61751 21.9994 1.37056C21.9994 1.12362 21.9073 0.77789 22.1378 0.728499Z" fill="#F1F1F1"/>
<path d="M64.6903 43.3515H58.6509V39.0053H75.1556V43.3515H69.07V60.3908H64.6903V43.3515Z" fill="#F1F1F1"/>
<path d="M73.9108 49.7722V49.7229C73.9108 43.6479 78.3828 38.6595 84.5145 38.6595C90.646 38.6595 95.0718 43.5492 95.0718 49.6241V49.6735C95.0718 55.7482 90.5998 60.7366 84.4683 60.7366C78.3367 60.7366 73.9108 55.8472 73.9108 49.7722ZM90.5077 49.7722V49.7229C90.5077 46.0681 88.0182 43.0059 84.4683 43.0059C80.9183 43.0059 78.4749 46.0185 78.4749 49.6735V49.7229C78.4749 53.3777 80.9645 56.4398 84.5145 56.4398C88.0643 56.3904 90.5077 53.427 90.5077 49.7722Z" fill="#F1F1F1"/>
<path d="M96.1782 39.0053H104.292C109.041 39.0053 111.945 42.0181 111.945 46.3643V46.4136C111.945 51.3526 108.349 53.9209 103.877 53.9209H100.558V60.3414H96.1782V39.0053ZM104.016 49.7722C106.229 49.7722 107.473 48.3892 107.473 46.5617V46.5124C107.473 44.3886 106.09 43.3021 103.924 43.3021H100.512V49.8216H104.016V49.7722Z" fill="#F1F1F1"/>
<path d="M33.3867 71.306C33.3867 66.9596 36.5678 63.4036 40.9476 63.4036C45.3273 63.4036 48.4623 66.9102 48.4623 71.2073V71.2566C48.4623 75.5534 45.2812 79.1095 40.9014 79.1095C36.5217 79.1095 33.3867 75.6028 33.3867 71.306ZM45.1889 71.306C45.1889 68.639 43.391 66.4657 40.9014 66.4657C38.3659 66.4657 36.6601 68.5897 36.6601 71.2073V71.2566C36.6601 73.8743 38.458 76.0473 40.9476 76.0473C43.4371 76.0473 45.1889 73.9236 45.1889 71.306Z" fill="#F1F1F1"/>
<path d="M49.1999 63.6506H60.0339V66.7128H52.3348V69.923H59.1119V72.9852H52.3348V78.8626H49.1999V63.6506Z" fill="#F1F1F1"/>
<path d="M64.5521 63.6506H67.9175L71.6517 70.0711L75.3861 63.6506H78.7515V78.8626H75.6627V68.9352L71.6517 75.4053H71.5596L67.5947 68.9846V78.8626H64.5521V63.6506Z" fill="#F1F1F1"/>
<path d="M80.2268 63.6506H83.3618V78.8626H80.2268V63.6506Z" fill="#F1F1F1"/>
<path d="M84.8832 63.6506H87.7415L94.3803 72.9852V63.6506H97.4691V78.8626H94.7952L87.9258 69.1823V78.8626H84.837V63.6506H84.8832Z" fill="#F1F1F1"/>
<path d="M98.8522 63.6506H104.385C108.856 63.6506 111.945 66.9103 111.945 71.2073V71.2566C111.945 75.5534 108.856 78.8626 104.385 78.8626H98.8522V63.6506ZM101.987 66.6634V75.8499H104.385C106.92 75.8499 108.672 74.0224 108.672 71.306V71.2566C108.672 68.5401 106.966 66.6634 104.385 66.6634H101.987Z" fill="#F1F1F1"/>
<path d="M109.733 81.7271V85.2337H106.598V81.7271H104.385V90.0244L102.54 87.2587C103.14 86.7648 103.509 85.9251 103.509 84.7398C103.509 82.6655 102.264 81.7271 100.42 81.7271H96.4089L97.6997 83.6533H99.636C100.512 83.6533 101.25 83.6533 101.25 84.8386C101.25 85.8264 100.65 85.9251 99.9587 85.9747H99.2211H97.0082V90.9135H99.2211V89.9257V85.9747L102.494 90.9135H106.598V87.1106H109.778V90.9135H111.991V83.3569L109.733 81.7271Z" fill="#F1F1F1"/>
<path d="M79.6276 81.7271H82.3936C85.0675 81.7271 86.9118 83.7027 86.9118 86.2709V86.3203C86.9118 88.8885 85.0675 90.8641 82.3936 90.8641H79.6276V81.7271ZM80.0424 82.1716V90.5183H82.4397C84.8832 90.5183 86.5428 88.6911 86.5428 86.3696V86.3203C86.5428 83.9991 84.8832 82.1716 82.4397 82.1716H80.0424Z" fill="#F1F1F1"/>
<path d="M88.6176 81.7271H94.6108V82.1222H89.0324V86.0734H94.1037V86.4684H89.0324V90.469H94.7031V90.8641H88.6176V81.7271Z" fill="#F1F1F1"/>
<path d="M79.5353 26.5593C79.5353 24.7318 80.9183 23.2501 82.7625 23.2501C84.6065 23.2501 85.9436 24.6824 85.9436 26.5097C85.9436 28.3372 84.5604 29.8189 82.7164 29.8189C80.9183 29.8189 79.5353 28.3866 79.5353 26.5593ZM84.284 26.5593C84.284 25.6208 83.6384 24.7811 82.7164 24.7811C81.7482 24.7811 81.1949 25.5715 81.1949 26.5097C81.1949 27.4481 81.8405 28.2385 82.7625 28.2385C83.7307 28.2878 84.284 27.4975 84.284 26.5593Z" fill="#F1F1F1"/>
<path d="M58.8814 33.9182L63.2612 30.0657C64.8749 28.6336 65.5202 27.8433 65.5202 26.7073C65.5202 25.5218 64.7826 24.8798 63.7683 24.8798C62.754 24.8798 62.0625 25.4725 61.0944 26.7567L59.066 25.0282C60.3567 23.1513 61.6015 22.1141 63.9527 22.1141C66.6727 22.1141 68.4708 23.7933 68.4708 26.4603V26.5096C68.4708 28.8311 67.3643 30.0163 65.0131 31.9426L62.8924 33.7205H68.6091V36.3877H58.9276V33.9182H58.8814Z" fill="#F1F1F1"/>
<path d="M68.978 32.4858C68.978 30.7573 69.7156 29.7201 71.0986 29.0779C70.0843 28.4359 69.439 27.4975 69.439 26.0157V25.9664C69.439 23.8427 71.283 22.1141 74.0492 22.1141C76.8152 22.1141 78.6595 23.7933 78.6595 25.9664V26.0157C78.6595 27.4975 78.0139 28.4359 76.9998 29.0779C78.3367 29.8189 79.1205 30.7079 79.1205 32.3871V32.4365C79.1205 35.0541 76.9537 36.5852 74.0492 36.5852C71.1448 36.5852 68.978 34.9554 68.978 32.4858ZM76.3083 32.2884C76.3083 31.1522 75.3399 30.5102 74.0492 30.5102C72.7583 30.5102 71.7901 31.1522 71.7901 32.239V32.2884C71.7901 33.2268 72.6201 34.0169 74.0492 34.0169C75.4784 34.0169 76.3083 33.2268 76.3083 32.2884ZM75.8932 26.3615C75.8932 25.4725 75.2017 24.6824 74.0031 24.6824C72.8044 24.6824 72.1129 25.4231 72.1129 26.3122V26.3615C72.1129 27.3493 72.8506 28.0903 74.0031 28.0903C75.1556 28.0407 75.8932 27.3493 75.8932 26.3615Z" fill="#F1F1F1"/>
</g>
<defs>
<clipPath id="clip0_38_288">
<rect width="112" height="91" fill="white"/>
</clipPath>
</defs>
</svg>
